<svg xmlns="http://www.w3.org/2000/svg" version="1.1" xmlns:xlink="http://www.w3.org/1999/xlink" xmlns:svgjs="http://svgjs.com/svgjs" width="560" height="1440" preserveAspectRatio="none" viewBox="0 0 560 1440"><g mask="url(&quot;#SvgjsMask1377&quot;)" fill="none"><rect width="560" height="1440" x="0" y="0" fill="rgba(21, 67, 96, 1)"></rect><path d="M0,653.195C121.95,652.807,246.64,602.679,330.285,513.934C407.944,431.54,391.83,303.009,430.397,196.556C464.905,101.305,547.434,22.937,544.858,-78.339C542.174,-183.858,493.173,-288.409,416.223,-360.659C342.227,-430.135,234.654,-439.48,135.781,-462.428C42.558,-484.065,-51.477,-514.846,-144.083,-490.703C-238.066,-466.2,-316.028,-402.348,-378.834,-328.262C-441.169,-254.731,-475.988,-165.333,-499.224,-71.778C-524.612,30.438,-548.14,135.854,-519.264,237.14C-487.909,347.12,-420.888,444.533,-331.64,516.042C-236.354,592.389,-122.099,653.584,0,653.195" fill="#123952"></path><path d="M560 2149.5119999999997C688.813 2170.513 771.957 2011.185 880.586 1938.841 986.981 1867.9850000000001 1151.527 1849.877 1191.993 1728.621 1233.0990000000002 1605.448 1089.642 1495.035 1071.608 1366.442 1053.474 1237.134 1159.4009999999998 1091.9279999999999 1087.426 982.983 1016.515 875.648 859.669 871.523 732.3720000000001 852.956 618.771 836.387 508.541 858.496 396.204 882.163 274.372 907.83 134.156 906.404 48.73200000000003 996.983-37.277000000000044 1088.182-26.25 1229.1100000000001-47.509000000000015 1352.653-69.418 1479.974-152.21699999999998 1625.715-77.60799999999995 1731.186-0.1209999999999809 1840.726 188.036 1770.618 300.222 1844.222 414.252 1919.035 425.39599999999996 2127.567 560 2149.5119999999997" fill="#184d6e"></path></g><defs><mask id="SvgjsMask1377"><rect width="560" height="1440" fill="#ffffff"></rect></mask></defs></svg>